<svg width="2780" height="624" viewBox="0 0 2780 624" fill="none" xmlns="http://www.w3.org/2000/svg">
<path d="M229.229 0C234.191 43.8174 229.994 65.9915 193.229 95.5C170.231 115.485 158.229 124.5 143.729 157C131.229 83.5 165.729 56.5 165.729 56.5C165.729 56.5 209.729 23.5 229.229 0Z" fill="url(#paint0_linear)"/>
<path d="M113.5 77C141 143.5 126.537 204.197 92.0002 237.5C71.5412 271.36 56.0002 271.5 61.2852 343.419C4.00023 267 61.2852 195.5 61.2852 195.5C61.2852 195.5 102 169 113.5 77Z" fill="url(#paint1_linear)"/>
<path d="M197 529C197 487 178.037 457.803 143.5 424.5C102 364.5 102.215 316.919 107.5 245C27 388.5 123.5 447.5 123.5 447.5C123.5 447.5 168 476 197 529Z" fill="url(#paint2_linear)"/>
<path d="M484.698 0C479.736 43.8174 483.932 65.9915 520.698 95.5C543.696 115.485 555.698 124.5 570.198 157C582.698 83.5 548.198 56.5 548.198 56.5C548.198 56.5 504.198 23.5 484.698 0Z" fill="url(#paint3_linear)"/>
<path d="M15.9474 285.5C22.9999 325 30.5703 341.843 58.5001 363.5L84.5001 434.5C36.5 415.5 -24.5001 375.5 15.9474 285.5Z" fill="url(#paint4_linear)"/>
<path d="M0 402C13.521 421.942 33.7394 433.906 98 457C137.774 479.743 150 494 157.5 521.5C133 503 120.047 500.75 71 488.5C24.8076 469.315 4.10019 454.456 0 402Z" fill="url(#paint5_linear)"/>
<path d="M600.5 77C573 143.5 587.463 204.197 622 237.5C642.459 271.36 658 271.5 652.715 343.419C710 267 652.715 195.5 652.715 195.5C652.715 195.5 612 169 600.5 77Z" fill="url(#paint6_linear)"/>
<path d="M517 529C517 487 535.963 457.803 570.5 424.5C612 364.5 611.785 316.919 606.5 245C687 388.5 590.5 447.5 590.5 447.5C590.5 447.5 546 476 517 529Z" fill="url(#paint7_linear)"/>
<path d="M698.053 285.5C691 325 683.43 341.843 655.5 363.5L629.5 434.5C677.5 415.5 738.5 375.5 698.053 285.5Z" fill="url(#paint8_linear)"/>
<path d="M714 402C700.479 421.942 680.261 433.906 616 457C576.226 479.743 564 494 556.5 521.5C581 503 593.953 500.75 643 488.5C689.192 469.315 709.9 454.456 714 402Z" fill="url(#paint9_linear)"/>
<path d="M411 84.5002C580.5 131 618.5 302 569.461 407.189C520.422 512.377 407 546.91 330.345 536.833C185.148 517.747 67.4999 369 151.607 207.17C73.4999 391.5 248.5 596 458.5 503C654 393 594 160 411 84.5002Z" fill="url(#paint10_linear)"/>
<path d="M175.903 126.884C174.119 127.266 174.576 129.842 176.399 129.778C398.087 122.007 457.404 202.774 355.568 252.631C353.924 253.436 354.759 256.343 356.545 255.939C428.743 239.588 477.224 217.084 470.5 178C463.493 137.273 344.072 90.903 175.903 126.884Z" fill="url(#paint11_linear)"/>
<path d="M295.293 208.09C304.57 208.349 313.205 212.886 318.68 220.38L496.625 463.927C500.195 468.813 493.636 474.656 489.194 470.548L218.147 219.966C212.721 214.95 216.415 205.889 223.801 206.095L295.293 208.09Z" fill="url(#paint12_linear)"/>
<path d="M250.158 107.307C246.689 107.455 245.737 102.8 249.063 101.8C340.44 74.3231 424.242 91.0591 485.253 155.211C485.734 155.717 486.025 156.381 486.07 157.077L487.435 177.996C487.477 178.648 487.731 179.267 488.158 179.762L493.718 186.2C495.202 187.918 494.314 190.597 492.098 191.089L482.384 193.248C481.405 193.466 481.32 194.829 482.265 195.166L492.485 198.816C492.806 198.931 493.046 199.201 493.123 199.533L493.652 201.825C494.086 203.705 492.658 205.5 490.729 205.5H485.856C484.066 205.5 482.672 207.059 482.902 208.834C484.881 224.082 487.768 229.716 494.5 235C494.5 235 495 215 497 213.5C499 212 510.5 216.5 497 194C502 194 500.603 188.877 499 184L510.5 187C528.946 216.305 534.725 230.741 541.5 271.5C544.6 292.234 544.046 301.8 541.702 316.725C541.575 317.538 541.112 318.263 540.439 318.736C533.576 323.562 529.619 327.718 524.541 335.348C523.475 336.949 521.207 337.207 519.847 335.847L507.036 323.036C506.382 322.382 506.075 321.464 506.152 320.542C506.731 313.577 504.924 308.399 499 298.5C500.317 279.758 497.384 259.163 491.889 250.729C491.366 249.926 490.434 249.545 489.477 249.522C482.175 249.344 478.338 244.878 472.5 233L466.156 218.046C465.748 217.086 465.902 215.943 466.491 215.082C510.663 150.488 415.041 100.283 250.158 107.307Z" fill="#6DBFC2"/>
<path d="M261 138C242.013 157.724 233.974 165.305 228.5 167L231.667 160.665C232.575 158.851 231.456 156.677 229.452 156.361L225.299 155.705C224.471 155.574 223.736 155.103 223.271 154.406L219 148C230.366 136.397 240.11 135.045 261 138Z" fill="#6DBFC2"/>
<path d="M332.23 175.425C332.999 175.756 333.895 175.606 334.51 175.038C343.747 166.506 352.49 166.019 380 182.5C393.713 193.287 391.519 197.012 385.182 202.649C384.751 203.032 384.5 203.581 384.5 204.158V225.069C384.5 225.659 384.234 226.225 383.779 226.601C373.921 234.747 371.349 233.687 368.692 228.854C368.564 228.623 368.393 228.413 368.189 228.244C363.7 224.523 361.462 221.597 361.029 210.833C361.008 210.302 360.781 209.794 360.393 209.432C352.282 201.892 346.529 198.297 335.393 193.18C335.136 193.062 334.902 192.891 334.721 192.674C333.19 190.85 332.269 189.055 331.073 185.675C330.736 184.722 329.715 184.101 328.861 184.643C326.856 185.917 325.733 188.893 324.496 194.603C324.228 195.839 322.898 196.566 321.762 196.011C319.341 194.829 317.553 193.367 315.206 189.356C315.07 189.123 314.983 188.861 314.953 188.593C314.385 183.544 314.5 180.678 316.188 176.708C316.382 176.251 316.754 175.889 317.214 175.7C323.231 173.22 326.836 173.106 332.23 175.425Z" fill="#6DBFC2"/>
<path d="M231.5 171.5C244.712 169.742 252.469 168.579 253.5 173C253.489 182.141 255.338 186.92 259.5 192L265 198.5C269.836 203.301 251.305 202.492 220.5 201C209.045 196.549 201.489 194.014 202.5 190L212 192C215.53 179.466 218.543 175.498 228 180.5L231.5 171.5Z" fill="#6DBFC2"/>
<path d="M284.133 191.113C284.686 191.041 285.244 191.203 285.672 191.56L292.756 197.464C294.193 198.661 293.346 201 291.476 201H280.988C280.365 201 279.778 200.71 279.4 200.215L275.603 195.25C274.668 194.028 275.407 192.251 276.933 192.052L284.133 191.113Z" fill="#6DBFC2"/>
<path d="M315.992 202.752C316.645 202.589 317.34 202.653 317.955 202.928C333.141 209.733 339 212.142 339 219C343.5 219 348.5 222.5 354 230C352.72 239.812 348.528 240.032 344.22 240.926C342.894 241.202 341.477 240.715 340.723 239.591C330.538 224.408 323.703 215.259 312.694 207.097C311.3 206.064 311.697 203.826 313.381 203.405L315.992 202.752Z" fill="#6DBFC2"/>
<path d="M360.043 264.646C359.269 263.569 359.736 262.041 360.996 261.627C362.722 261.059 364.224 260.677 365.897 260.51C368.516 260.248 370.967 261.615 372.693 263.602L391.848 285.673C392.356 286.258 392.032 287.174 391.266 287.29C388.094 287.77 385.813 287.779 382.496 287.189C381.849 287.074 381.262 286.735 380.838 286.234C378.645 283.64 377.327 281.448 376.13 278.098C375.528 276.413 373.453 275.738 372.055 276.856C370.938 277.75 369.299 277.525 368.464 276.363L360.043 264.646Z" fill="#6DBFC2"/>
<path d="M222 240.236C222 238.052 224.602 236.918 226.202 238.404L335 339.5C319.489 348.899 317.587 355.586 323.871 370.082C324.16 370.749 323.676 371.5 322.949 371.5H319.515C319.192 371.5 318.889 371.344 318.701 371.081L309 357.5L291.351 358.971C291.118 358.99 290.883 358.982 290.652 358.947L274.5 356.5C254 374 266 391 282.5 391C286.644 384.164 289.946 383.941 296.5 386C295.996 391.818 294.925 395.948 293.306 400.501C292.771 402.006 294.092 403.541 295.667 403.276C305.873 401.559 307.786 404.178 313.5 408C315.5 415 311.89 418.147 312.5 422C322.5 431.341 336.5 427 337.5 431C318.294 431.874 309.881 431.295 302.801 427.452C302.288 427.173 301.941 426.662 301.825 426.091C298.607 410.324 288.046 405.636 256.5 396C252.849 393.036 250.296 391.819 246.179 387.327C245.404 386.482 244.374 385.922 243.275 385.596C239.809 384.565 237.632 382.422 233.993 378.169C233.344 377.41 232.936 376.47 232.848 375.476C232.651 373.253 232.612 371.191 232.883 367.126C232.954 366.069 232.695 365.013 232.149 364.106C226.077 354.018 223.951 347.244 221.5 335L218.705 334.068C217.962 333.821 217.236 334.49 217.421 335.252C220.14 346.485 222.109 352.697 223.757 357.466C224.091 358.434 223.027 359.144 222.343 358.381C206.224 340.382 195.437 289.141 222 264V240.236Z" fill="#6DBFC2"/>
<path d="M340.821 388.691C341.854 389.078 342.64 389.997 342.632 391.1C342.595 396.283 338.199 396.072 333.5 394.816C331.24 390.057 321.033 386.898 310.791 384.773C309.611 384.528 309.747 382.842 310.953 382.865C326.344 383.154 333.538 385.962 340.821 388.691Z" fill="#6DBFC2"/>
<path d="M356.716 389.982C356.9 389.993 357.082 390.058 357.232 390.166C360.864 392.774 362.317 394.597 363.612 396.593C364.023 397.226 363.589 398.064 362.837 398.112C353.354 398.712 348.325 398.369 346.202 396.22C346.065 396.081 345.987 395.897 345.963 395.704L345.588 392.707C345.536 392.284 345.757 391.872 346.144 391.692C349.559 390.1 352.035 389.696 356.716 389.982Z" fill="#6DBFC2"/>
<path d="M426 422.5L461.335 454.891C461.769 455.288 462.076 455.804 462.219 456.375L463.551 461.703C463.826 462.804 463.442 463.98 462.578 464.716C425.965 495.895 403.008 505.41 353.593 513.284C351.442 513.627 349.663 511.625 350.248 509.527L354.646 493.769C354.824 493.131 354.345 492.5 353.683 492.5H349.884C349.321 492.5 348.781 492.262 348.408 491.841C342.117 484.751 343.078 482.856 318.588 466.698C317.006 465.655 316.124 463.803 316.4 461.927C317.78 452.543 320.115 448.438 326.951 448.327C328.627 448.299 330.137 447.132 330.304 445.464L332 428.5C343.385 418.501 349.277 417.136 359 421.5C380.054 416.184 390.455 415.795 405 422.5H426Z" fill="#6DBFC2"/>
<path d="M940.6 387L889.6 306.9C888 307.1 885.6 307.2 882.4 307.2H850.3V387H821.2V170.1H879.1C893.9 170.1 907.1 172.7 918.7 177.9C930.3 183.1 939.4 190.8 946 201C952.6 211 955.9 223.1 955.9 237.3C955.9 250.7 952.9 263 946.9 274.2C941.1 285.4 932.1 293.9 919.9 299.7L974.5 387H940.6ZM881.8 279C897.4 279 908.6 274.9 915.4 266.7C922.4 258.5 925.9 249.1 925.9 238.5C925.9 232.1 924.4 225.8 921.4 219.6C918.6 213.4 914 208.3 907.6 204.3C901.4 200.1 893.5 198 883.9 198H850.3V279H881.8ZM1048.35 170.1V387H1019.25V170.1H1048.35ZM1269.95 370.8C1262.95 375.4 1254.05 379.7 1243.25 383.7C1232.65 387.5 1221.05 389.4 1208.45 389.4C1186.25 389.4 1166.65 384.5 1149.65 374.7C1132.85 364.9 1119.85 351.7 1110.65 335.1C1101.65 318.5 1097.15 300.2 1097.15 280.2C1097.15 258.8 1101.75 239.6 1110.95 222.6C1120.15 205.4 1132.85 192 1149.05 182.4C1165.45 172.6 1183.95 167.7 1204.55 167.7C1216.75 167.7 1228.15 169.3 1238.75 172.5C1249.35 175.7 1258.85 179.9 1267.25 185.1L1255.55 212.4C1238.95 201.2 1222.25 195.6 1205.45 195.6C1191.45 195.6 1178.45 199.3 1166.45 206.7C1154.65 214.1 1145.15 224.2 1137.95 237C1130.95 249.6 1127.45 263.5 1127.45 278.7C1127.45 294.3 1130.65 308.4 1137.05 321C1143.65 333.6 1152.95 343.5 1164.95 350.7C1177.15 357.7 1191.15 361.2 1206.95 361.2C1226.35 361.2 1243.25 355.7 1257.65 344.7L1269.95 370.8ZM1490.85 387H1461.75V291.9H1348.05V387H1318.95V170.1H1348.05V264H1461.75V170.1H1490.85V387ZM1769.03 163.2V387H1740.23V246.6L1660.43 359.7H1659.83L1581.53 250.5V387H1553.33V163.2H1553.63L1660.43 314.4L1768.73 163.2H1769.03ZM1857.76 310.2C1857.76 319.8 1860.06 328.5 1864.66 336.3C1869.26 343.9 1875.46 350 1883.26 354.6C1891.26 359 1900.06 361.2 1909.66 361.2C1919.66 361.2 1928.66 359 1936.66 354.6C1944.86 350.2 1951.26 344.1 1955.86 336.3C1960.46 328.5 1962.76 319.8 1962.76 310.2V170.1H1991.26V311.1C1991.26 326.5 1987.66 340.2 1980.46 352.2C1973.26 364 1963.46 373.2 1951.06 379.8C1938.66 386.2 1924.86 389.4 1909.66 389.4C1894.66 389.4 1880.96 386.2 1868.56 379.8C1856.16 373.2 1846.36 364 1839.16 352.2C1832.16 340.2 1828.66 326.5 1828.66 311.1V170.1H1857.76V310.2ZM2240.08 170.1V394.2H2239.18L2079.88 232.5L2080.48 387H2051.08V163.5H2052.58L2211.58 327L2210.98 170.1H2240.08Z" fill="#4B969B"/>
<path d="M2577.37 166.2L2476.57 397.2L2375.77 166.2H2427.97L2478.37 290.7L2525.77 166.2H2577.37ZM2659.07 166.2V387H2615.57V166.2H2659.07Z" fill="#377376"/>
<defs>
<linearGradient id="paint0_linear" x1="185.964" y1="0" x2="185.964" y2="157" gradientUnits="userSpaceOnUse">
<stop stop-color="#377376"/>
<stop offset="1" stop-color="#377376"/>
</linearGradient>
<linearGradient id="paint1_linear" x1="81.8658" y1="77" x2="81.8658" y2="343.419" gradientUnits="userSpaceOnUse">
<stop stop-color="#377376"/>
<stop offset="1" stop-color="#377376"/>
</linearGradient>
<linearGradient id="paint2_linear" x1="136.223" y1="529" x2="136.223" y2="245" gradientUnits="userSpaceOnUse">
<stop stop-color="#377376"/>
<stop offset="1" stop-color="#377376"/>
</linearGradient>
<linearGradient id="paint3_linear" x1="527.963" y1="0" x2="527.963" y2="157" gradientUnits="userSpaceOnUse">
<stop stop-color="#377376"/>
<stop offset="1" stop-color="#377376"/>
</linearGradient>
<linearGradient id="paint4_linear" x1="43.6228" y1="285.5" x2="43.6228" y2="434.5" gradientUnits="userSpaceOnUse">
<stop stop-color="#377376"/>
<stop offset="1" stop-color="#377376"/>
</linearGradient>
<linearGradient id="paint5_linear" x1="78.75" y1="402" x2="78.75" y2="521.5" gradientUnits="userSpaceOnUse">
<stop stop-color="#377376"/>
<stop offset="1" stop-color="#377376"/>
</linearGradient>
<linearGradient id="paint6_linear" x1="632.134" y1="77" x2="632.134" y2="343.419" gradientUnits="userSpaceOnUse">
<stop stop-color="#377376"/>
<stop offset="1" stop-color="#377376"/>
</linearGradient>
<linearGradient id="paint7_linear" x1="577.777" y1="529" x2="577.777" y2="245" gradientUnits="userSpaceOnUse">
<stop stop-color="#377376"/>
<stop offset="1" stop-color="#377376"/>
</linearGradient>
<linearGradient id="paint8_linear" x1="670.377" y1="285.5" x2="670.377" y2="434.5" gradientUnits="userSpaceOnUse">
<stop stop-color="#377376"/>
<stop offset="1" stop-color="#377376"/>
</linearGradient>
<linearGradient id="paint9_linear" x1="635.25" y1="402" x2="635.25" y2="521.5" gradientUnits="userSpaceOnUse">
<stop stop-color="#377376"/>
<stop offset="1" stop-color="#377376"/>
</linearGradient>
<linearGradient id="paint10_linear" x1="226" y1="132" x2="516" y2="521" gradientUnits="userSpaceOnUse">
<stop stop-color="#377376"/>
<stop offset="1" stop-color="#377376"/>
</linearGradient>
<linearGradient id="paint11_linear" x1="315.561" y1="113.963" x2="315.561" y2="259.5" gradientUnits="userSpaceOnUse">
<stop stop-color="#377376"/>
<stop offset="1" stop-color="#377376"/>
</linearGradient>
<linearGradient id="paint12_linear" x1="364.75" y1="205.5" x2="364.75" y2="505.5" gradientUnits="userSpaceOnUse">
<stop stop-color="#377376"/>
<stop offset="1" stop-color="#377376"/>
</linearGradient>
</defs>
</svg>
