<svg width="150" height="132" viewBox="0 0 150 132" fill="none" xmlns="http://www.w3.org/2000/svg">
<path d="M48.1574 0C49.1998 9.20534 48.3181 13.8638 40.5944 20.063C35.7629 24.2616 33.2414 26.1555 30.1952 32.9832C27.5692 17.542 34.8171 11.8697 34.8171 11.8697C34.8171 11.8697 44.0607 4.93697 48.1574 0Z" fill="url(#paint0_linear)"/>
<path d="M23.8446 16.1765C29.6219 30.1471 26.5835 42.8985 19.3278 49.895C15.0297 57.0084 11.7648 57.0378 12.8751 72.1469C0.840446 56.0924 12.8751 41.0714 12.8751 41.0714C12.8751 41.0714 21.4286 35.5042 23.8446 16.1765Z" fill="url(#paint1_linear)"/>
<path d="M41.3867 111.134C41.3867 102.311 37.4028 96.177 30.1472 89.1806C21.4287 76.5756 21.4738 66.5796 22.5841 51.4705C5.67235 81.6176 25.9455 94.0125 25.9455 94.0125C25.9455 94.0125 35.2942 99.9999 41.3867 111.134Z" fill="url(#paint2_linear)"/>
<path d="M101.827 0C100.785 9.20534 101.666 13.8638 109.39 20.063C114.222 24.2616 116.743 26.1555 119.789 32.9832C122.416 17.542 115.168 11.8697 115.168 11.8697C115.168 11.8697 105.924 4.93697 101.827 0Z" fill="url(#paint3_linear)"/>
<path d="M3.35028 59.9789C4.8319 68.2773 6.42232 71.8157 12.2899 76.3655L17.7521 91.2815C7.66806 87.2899 -5.14709 78.8865 3.35028 59.9789Z" fill="url(#paint4_linear)"/>
<path d="M0 84.4538C2.84055 88.6433 7.08811 91.1567 20.5882 96.0084C28.9441 100.786 31.5126 103.782 33.0882 109.559C27.9412 105.672 25.22 105.2 14.916 102.626C5.21168 98.5956 0.861385 95.474 0 84.4538Z" fill="url(#paint5_linear)"/>
<path d="M126.155 16.1765C120.378 30.1471 123.417 42.8985 130.672 49.895C134.97 57.0084 138.235 57.0378 137.125 72.1469C149.16 56.0924 137.125 41.0714 137.125 41.0714C137.125 41.0714 128.571 35.5042 126.155 16.1765Z" fill="url(#paint6_linear)"/>
<path d="M108.613 111.134C108.613 102.311 112.597 96.177 119.853 89.1806C128.571 76.5756 128.526 66.5796 127.416 51.4705C144.328 81.6176 124.055 94.0125 124.055 94.0125C124.055 94.0125 114.706 99.9999 108.613 111.134Z" fill="url(#paint7_linear)"/>
<path d="M146.65 59.9789C145.168 68.2773 143.578 71.8157 137.71 76.3655L132.248 91.2815C142.332 87.2899 155.147 78.8865 146.65 59.9789Z" fill="url(#paint8_linear)"/>
<path d="M150 84.4538C147.159 88.6433 142.912 91.1567 129.412 96.0084C121.056 100.786 118.487 103.782 116.912 109.559C122.059 105.672 124.78 105.2 135.084 102.626C144.788 98.5956 149.139 95.474 150 84.4538Z" fill="url(#paint9_linear)"/>
<path d="M86.3445 17.7521C121.954 27.521 129.937 63.4453 119.635 85.5439C109.332 107.642 85.5042 114.897 69.4002 112.78C38.8967 108.77 14.1807 77.521 31.8503 43.5231C15.4412 82.2479 52.2059 125.21 96.3235 105.672C137.395 82.563 124.79 33.6134 86.3445 17.7521Z" fill="url(#paint10_linear)"/>
<path d="M36.9544 26.6562C36.5796 26.7365 36.6756 27.2776 37.0586 27.2642C83.6317 25.6316 96.0932 42.5995 74.6991 53.0737C74.3537 53.2428 74.5292 53.8535 74.9044 53.7686C90.072 50.3335 100.257 45.6058 98.8445 37.3949C97.3724 28.8388 72.284 19.0972 36.9544 26.6562Z" fill="url(#paint11_linear)"/>
<path d="M62.0363 43.7163C63.9853 43.7707 65.7994 44.7238 66.9496 46.2982L104.333 97.4636C105.083 98.4901 103.705 99.7176 102.772 98.8546L45.8292 46.2112C44.6893 45.1574 45.4653 43.2537 47.017 43.2971L62.0363 43.7163Z" fill="url(#paint12_linear)"/>
<path d="M52.5542 22.5434C51.8254 22.5745 51.6254 21.5966 52.3241 21.3865C71.521 15.614 89.1264 19.13 101.944 32.6073C102.045 32.7136 102.106 32.8531 102.115 32.9993L102.402 37.3941C102.411 37.531 102.464 37.6611 102.554 37.7651L103.722 39.1176C104.034 39.4785 103.847 40.0413 103.382 40.1447L101.341 40.5983C101.135 40.6441 101.118 40.9304 101.316 41.0012L103.463 41.768C103.531 41.7922 103.581 41.8489 103.597 41.9186L103.708 42.4001C103.8 42.7951 103.5 43.1722 103.094 43.1722H102.071C101.694 43.1722 101.402 43.4997 101.45 43.8726C101.866 47.076 102.472 48.2596 103.886 49.3697C103.886 49.3697 103.992 45.168 104.412 44.8529C104.832 44.5378 107.248 45.4831 104.412 40.7562C105.462 40.7562 105.169 39.68 104.832 38.6554L107.248 39.2857C111.123 45.4422 112.337 48.4749 113.76 57.0378C114.412 61.3936 114.295 63.4033 113.803 66.5388C113.776 66.7096 113.679 66.8619 113.538 66.9613C112.096 67.9752 111.264 68.8483 110.198 70.4512C109.974 70.7876 109.497 70.8418 109.211 70.556L106.52 67.8647C106.383 67.7273 106.318 67.5344 106.334 67.3407C106.456 65.8775 106.076 64.7897 104.832 62.71C105.109 58.7726 104.492 54.4459 103.338 52.6741C103.228 52.5054 103.032 52.4254 102.831 52.4205C101.297 52.3831 100.491 51.4449 99.2646 48.9495L97.9319 45.8079C97.8462 45.6062 97.8785 45.3661 98.0023 45.1852C107.282 31.6151 87.1934 21.0678 52.5542 22.5434Z" fill="#6DBFC2"/>
<path d="M54.8319 28.9916C50.8431 33.1353 49.1542 34.728 48.0042 35.0841L48.6695 33.7534C48.8603 33.3721 48.6252 32.9154 48.2042 32.849L47.3317 32.7112C47.1577 32.6836 47.0033 32.5847 46.9056 32.4383L46.0084 31.0925C48.3962 28.6548 50.4433 28.3708 54.8319 28.9916Z" fill="#6DBFC2"/>
<path d="M69.7961 36.8543C69.9577 36.9236 70.1459 36.8921 70.2751 36.7728C72.2156 34.9803 74.0524 34.878 79.8318 38.3404C82.7127 40.6066 82.2518 41.3891 80.9205 42.5734C80.8299 42.654 80.7772 42.7692 80.7772 42.8904V47.2834C80.7772 47.4074 80.7213 47.5263 80.6257 47.6053C78.5547 49.3166 78.0144 49.0941 77.4562 48.0788C77.4293 48.0301 77.3934 47.986 77.3505 47.9505C76.4074 47.1687 75.9373 46.554 75.8463 44.2927C75.8419 44.1813 75.7942 44.0744 75.7127 43.9984C74.0087 42.4143 72.8001 41.6591 70.4606 40.5841C70.4066 40.5593 70.3575 40.5234 70.3194 40.4778C69.9978 40.0948 69.8043 39.7175 69.553 39.0074C69.4822 38.8072 69.2677 38.6767 69.0883 38.7906C68.6671 39.0583 68.4312 39.6835 68.1713 40.883C68.115 41.1427 67.8356 41.2954 67.597 41.1788C67.0883 40.9305 66.7127 40.6234 66.2196 39.7807C66.1911 39.7318 66.1728 39.6767 66.1665 39.6204C66.0472 38.5597 66.0713 37.9576 66.4259 37.1236C66.4667 37.0276 66.5449 36.9515 66.6415 36.9118C67.9056 36.3908 68.6629 36.3671 69.7961 36.8543Z" fill="#6DBFC2"/>
<path d="M48.6344 36.0293C51.4101 35.6599 53.0397 35.4156 53.2563 36.3444C53.254 38.2648 53.6424 39.2686 54.5168 40.336L55.6723 41.7015C56.6883 42.7102 52.7952 42.5402 46.3235 42.2267C43.917 41.2917 42.3296 40.7591 42.542 39.9158L44.5378 40.336C45.2794 37.7028 45.9124 36.869 47.8991 37.92L48.6344 36.0293Z" fill="#6DBFC2"/>
<path d="M59.6919 40.1501C59.8081 40.1349 59.9253 40.169 60.0152 40.244L61.5035 41.4843C61.8054 41.7358 61.6274 42.2271 61.2346 42.2271H59.0312C58.9003 42.2271 58.777 42.1662 58.6976 42.0622L57.8999 41.0192C57.7035 40.7625 57.8587 40.3891 58.1793 40.3473L59.6919 40.1501Z" fill="#6DBFC2"/>
<path d="M66.385 42.5949C66.5222 42.5607 66.6682 42.5741 66.7974 42.6319C69.9877 44.0615 71.2186 44.5676 71.2186 46.0084C72.164 46.0084 73.2144 46.7437 74.3699 48.3193C74.101 50.3807 73.2203 50.4269 72.3153 50.6147C72.0367 50.6727 71.739 50.5704 71.5806 50.3343C69.4409 47.1445 68.0049 45.2225 65.6921 43.5077C65.3993 43.2907 65.4827 42.8206 65.8364 42.7321L66.385 42.5949Z" fill="#6DBFC2"/>
<path d="M75.6393 55.598C75.4767 55.3718 75.5748 55.0506 75.8395 54.9636C76.2021 54.8445 76.5176 54.764 76.8691 54.7289C77.4193 54.6739 77.9342 54.9611 78.2968 55.3785L82.3209 60.0153C82.4277 60.1382 82.3596 60.3306 82.1987 60.355C81.5323 60.4558 81.0531 60.4577 80.3563 60.3337C80.2203 60.3096 80.097 60.2384 80.0079 60.1331C79.5472 59.5882 79.2704 59.1277 79.0189 58.4239C78.8924 58.0699 78.4565 57.9281 78.1628 58.1629C77.9281 58.3508 77.5838 58.3035 77.4084 58.0594L75.6393 55.598Z" fill="#6DBFC2"/>
<path d="M46.6387 50.4696C46.6387 50.0108 47.1853 49.7726 47.5215 50.0848L70.3781 71.3235C67.1195 73.298 66.72 74.7029 68.0401 77.7483C68.1008 77.8884 67.9992 78.0462 67.8464 78.0462H67.125C67.0571 78.0462 66.9935 78.0134 66.954 77.9581L64.916 75.105L61.2082 75.414C61.1593 75.418 61.1099 75.4163 61.0614 75.409L57.6681 74.8949C53.3614 78.5714 55.8824 82.1428 59.3488 82.1428C60.2193 80.7067 60.913 80.6598 62.2899 81.0924C62.184 82.3147 61.959 83.1823 61.6189 84.1388C61.5065 84.455 61.784 84.7775 62.1149 84.7218C64.259 84.3611 64.6609 84.9113 65.8613 85.7142C66.2815 87.1848 65.5231 87.846 65.6513 88.6554C67.7521 90.6178 70.6933 89.7059 70.9034 90.5462C66.8685 90.7298 65.1011 90.6082 63.6137 89.8008C63.5059 89.7422 63.433 89.6348 63.4086 89.5149C62.7326 86.2025 60.5139 85.2176 53.8866 83.1932C53.1196 82.5705 52.5832 82.3149 51.7183 81.3712C51.5555 81.1936 51.3391 81.076 51.1082 81.0075C50.3801 80.7909 49.9227 80.3407 49.1582 79.4472C49.0219 79.2878 48.9362 79.0903 48.9177 78.8815C48.8763 78.4144 48.8681 77.9812 48.925 77.1273C48.94 76.9052 48.8855 76.6833 48.7708 76.4928C47.4952 74.3735 47.0486 72.9504 46.5337 70.3781L45.9465 70.1823C45.7904 70.1304 45.6379 70.2709 45.6767 70.431C46.2479 72.7909 46.6616 74.0959 47.0078 75.0978C47.078 75.3012 46.8545 75.4504 46.7108 75.2901C43.3244 71.5088 41.0582 60.7438 46.6387 55.4621V50.4696Z" fill="#6DBFC2"/>
<path d="M71.601 81.6577C71.818 81.739 71.9832 81.9321 71.9815 82.1639C71.9737 83.2528 71.0502 83.2085 70.063 82.9446C69.5882 81.9447 67.4439 81.281 65.2922 80.8346C65.0443 80.7831 65.0729 80.4289 65.3263 80.4337C68.5597 80.4944 70.071 81.0844 71.601 81.6577Z" fill="#6DBFC2"/>
<path d="M74.9404 81.929C74.979 81.9313 75.0173 81.9449 75.0488 81.9676C75.8118 82.5155 76.117 82.8985 76.3891 83.3178C76.4754 83.4507 76.3843 83.6268 76.2263 83.6369C74.2341 83.7629 73.1776 83.6909 72.7316 83.2394C72.7028 83.2102 72.6864 83.1716 72.6814 83.131L72.6026 82.5014C72.5917 82.4126 72.6381 82.326 72.7194 82.2882C73.4368 81.9538 73.957 81.8689 74.9404 81.929Z" fill="#6DBFC2"/>
<path d="M89.4959 88.7603L96.9192 95.5651C97.0104 95.6486 97.0749 95.757 97.105 95.8769L97.3848 96.9962C97.4426 97.2276 97.3619 97.4746 97.1804 97.6292C89.4885 104.18 84.6656 106.178 74.2843 107.833C73.8324 107.905 73.4586 107.484 73.5815 107.043L74.5055 103.733C74.5429 103.599 74.4423 103.466 74.3032 103.466H73.5051C73.3868 103.466 73.2733 103.416 73.195 103.328C71.8733 101.839 72.0752 101.44 66.9303 98.0458C66.5979 97.8265 66.4126 97.4374 66.4706 97.0433C66.7605 95.0719 67.2511 94.2095 68.6872 94.1861C69.0393 94.1803 69.3565 93.9351 69.3916 93.5847L69.7479 90.0208C72.1397 87.9201 73.3775 87.6334 75.4202 88.5502C79.8433 87.4334 82.0284 87.3517 85.0841 88.7603H89.4959Z" fill="#6DBFC2"/>
<defs>
<linearGradient id="paint0_linear" x1="39.0681" y1="0" x2="39.0681" y2="32.9832" gradientUnits="userSpaceOnUse">
<stop stop-color="#377376"/>
<stop offset="1" stop-color="#377376"/>
</linearGradient>
<linearGradient id="paint1_linear" x1="17.1988" y1="16.1765" x2="17.1988" y2="72.1469" gradientUnits="userSpaceOnUse">
<stop stop-color="#377376"/>
<stop offset="1" stop-color="#377376"/>
</linearGradient>
<linearGradient id="paint2_linear" x1="28.6184" y1="111.134" x2="28.6184" y2="51.4705" gradientUnits="userSpaceOnUse">
<stop stop-color="#377376"/>
<stop offset="1" stop-color="#377376"/>
</linearGradient>
<linearGradient id="paint3_linear" x1="110.917" y1="0" x2="110.917" y2="32.9832" gradientUnits="userSpaceOnUse">
<stop stop-color="#377376"/>
<stop offset="1" stop-color="#377376"/>
</linearGradient>
<linearGradient id="paint4_linear" x1="9.16444" y1="59.9789" x2="9.16444" y2="91.2815" gradientUnits="userSpaceOnUse">
<stop stop-color="#377376"/>
<stop offset="1" stop-color="#377376"/>
</linearGradient>
<linearGradient id="paint5_linear" x1="16.5441" y1="84.4538" x2="16.5441" y2="109.559" gradientUnits="userSpaceOnUse">
<stop stop-color="#377376"/>
<stop offset="1" stop-color="#377376"/>
</linearGradient>
<linearGradient id="paint6_linear" x1="132.801" y1="16.1765" x2="132.801" y2="72.1469" gradientUnits="userSpaceOnUse">
<stop stop-color="#377376"/>
<stop offset="1" stop-color="#377376"/>
</linearGradient>
<linearGradient id="paint7_linear" x1="121.382" y1="111.134" x2="121.382" y2="51.4705" gradientUnits="userSpaceOnUse">
<stop stop-color="#377376"/>
<stop offset="1" stop-color="#377376"/>
</linearGradient>
<linearGradient id="paint8_linear" x1="140.836" y1="59.9789" x2="140.836" y2="91.2815" gradientUnits="userSpaceOnUse">
<stop stop-color="#377376"/>
<stop offset="1" stop-color="#377376"/>
</linearGradient>
<linearGradient id="paint9_linear" x1="133.456" y1="84.4538" x2="133.456" y2="109.559" gradientUnits="userSpaceOnUse">
<stop stop-color="#377376"/>
<stop offset="1" stop-color="#377376"/>
</linearGradient>
<linearGradient id="paint10_linear" x1="47.479" y1="27.7311" x2="108.403" y2="109.454" gradientUnits="userSpaceOnUse">
<stop stop-color="#377376"/>
<stop offset="1" stop-color="#377376"/>
</linearGradient>
<linearGradient id="paint11_linear" x1="66.2943" y1="23.9417" x2="66.2943" y2="54.5167" gradientUnits="userSpaceOnUse">
<stop stop-color="#377376"/>
<stop offset="1" stop-color="#377376"/>
</linearGradient>
<linearGradient id="paint12_linear" x1="76.6281" y1="43.1721" x2="76.6281" y2="106.197" gradientUnits="userSpaceOnUse">
<stop stop-color="#377376"/>
<stop offset="1" stop-color="#377376"/>
</linearGradient>
</defs>
</svg>
